# xmcd
#
# Track frame offsets: 
#        187
#        13982
#        28547
#        46995
#        63110
#        80030
#        96455
#        111495
#        128645
#        148472
#        170615
#        188982
#        202807
#        220302
#        237447
#        255442
#        276200
#        287970
#        308492
#        321032
#
# Disc length: 4469 seconds
#
# Revision: 2
# Processed by: cddbd v1.5.2PL0 Copyright (c) Steve Scherf et al.
# Submitted via: ExactAudioCopy v1.0b3
#
DISCID=30117314
DTITLE=ニニ・ロッソ - ニニ・ロッソ　Super Digital Best
DYEAR=1900
DGENRE=Easy Listening
TTITLE0=夜空のトランペット [ニニ・ロッソ]
TTITLE1=夕焼けのトランペット
TTITLE2=皆殺しの歌
TTITLE3=星空のブルース
TTITLE4=ジェルソミーナ
TTITLE5=スターダスト
TTITLE6=さすらいのマーチ
TTITLE7=ティアーフレンド
TTITLE8=カタリ・カタリ
TTITLE9=恋のアランフェス
TTITLE10=ソレアード
TTITLE11=さすらいのトランペット
TTITLE12=シューベルトのセレナーデ
TTITLE13=水曜日の夜
TTITLE14=母
TTITLE15=この素晴らしき世界
TTITLE16=真夜中のブルース
TTITLE17=アリベデルチ・ローマ
TTITLE18=真珠採りのタンゴ
TTITLE19=シバの女王
EXTD=
EXTT0=
EXTT1=
EXTT2=
EXTT3=
EXTT4=
EXTT5=
EXTT6=
EXTT7=
EXTT8=
EXTT9=
EXTT10=
EXTT11=
EXTT12=
EXTT13=
EXTT14=
EXTT15=
EXTT16=
EXTT17=
EXTT18=
EXTT19=
PLAYORDER=
